PathFileType	4	(X/Y/Z)	Patient4_TMGait_0pt5_02_right_15.trc.trc
DataRate	CameraRate	NumFrames	NumMarkers	Units	OrigDataRate	OrigDataStartFrame	OrigNumFrames
77.348066298343	77.348066298343	5	33	mm	77.348066298343	53	       141
Frame#	Time	Sacral			L.Shoulder			Chest			R.Shoulder			Neck			R.ASIS			L.ASIS			R.Thigh.Superior			R.Thigh.Lateral			R.Thigh.Inferior			R.Patella			L.Thigh.Superior			L.Thigh.Lateral			L.Thigh.Inferior			L.Patella			L.Shank.Superior			L.Shank.Lateral			L.Shank.Inferior			R.Shank.Superior			R.Shank.Lateral			R.Shank.Inferior			R.Heel			R.Midfoot.Superior			R.Midfoot.Lateral			R.Toe			L.Heel			L.Midfoot.Lateral			L.Midfoot.Superior			L.Toe			L.Elbow			L.Wrist			R.Elbow			R.Wrist			
		X1	Y1	Z1	X2	Y2	Z2	X3	Y3	Z3	X4	Y4	Z4	X5	Y5	Z5	X6	Y6	Z6	X7	Y7	Z7	X8	Y8	Z8	X9	Y9	Z9	X10	Y10	Z10	X11	Y11	Z11	X12	Y12	Z12	X13	Y13	Z13	X14	Y14	Z14	X15	Y15	Z15	X16	Y16	Z16	X17	Y17	Z17	X18	Y18	Z18	X19	Y19	Z19	X20	Y20	Z20	X21	Y21	Z21	X22	Y22	Z22	X23	Y23	Z23	X24	Y24	Z24	X25	Y25	Z25	X26	Y26	Z26	X27	Y27	Z27	X28	Y28	Z28	X29	Y29	Z29	X30	Y30	Z30	X31	Y31	Z31	X32	Y32	Z32	X33	Y33	Z33	

53	20.292285714286	586.718463446434	1016.380761097267	558.264144330478	779.773735952980	1445.921007993601	394.260662891568	883.720402529595	1363.469962251794	548.320617952470	808.529092856391	1431.193956486264	729.400667722613	784.536926833954	1497.688562237982	549.171266017544	814.077729683941	940.518787227340	667.140179944358	794.168208355714	968.446980627707	395.438850013757	847.374547942730	739.750536772369	636.003391694568	762.620652790560	633.968160688736	692.159451391833	838.541016193024	580.858462080000	610.857324063624	835.917954816631	493.586938608676	614.556326688400	868.620125985881	780.322435983690	416.967558855818	818.037573616101	656.559274250320	339.105979582899	919.086805662031	591.104050383617	398.048101276718	935.597012852762	509.223423310379	390.722496008417	888.527098942430	436.737694711362	381.435452796347	768.733073565204	353.430653334331	330.806472233083	798.783798475826	226.171815701742	383.819519601716	808.250265505665	405.775272884897	619.889708164898	735.422842954017	300.262136763094	676.114594885536	780.547306763526	207.830101748222	611.954432379815	646.072948140033	43.413926935388	571.758468432302	817.970160811774	97.725879672843	613.123595964241	727.966945590455	36.210007602398	648.966778531892	936.100618799040	45.095308573528	642.693238757231	641.640495560137	96.995179751264	420.451719202856	707.926527708045	83.584642389804	335.565026251485	803.722651159955	126.111108845212	357.147970418870	914.381744364073	53.499111033277	317.141479593951	695.588387988185	1101.844349797771	273.146101613229	708.065683864073	841.374451811556	266.718455547626	840.101248896522	1092.946056530978	862.965166480358	1053.734188739443	945.691766738288	853.794798102346	
54	20.305214285714	585.243854063755	1016.761591050287	559.524145550559	778.077375542043	1446.165981641863	395.065511769861	883.017334084778	1363.062906014029	548.098643372523	809.383269634825	1430.602669083529	729.818958612237	784.137214836788	1497.532056191265	550.017314142205	812.855503475207	940.239860754198	666.820928810937	791.715815730356	968.506191305276	395.197770832341	844.019662279609	739.010150521913	635.103207273419	758.950766454892	633.775815546301	692.287242779931	833.536536834711	580.093540586850	610.296314763564	830.132313614069	493.151770894426	614.067122750625	866.305803914040	780.999412245331	417.232447635802	816.580718388159	657.217287272581	338.887975205328	917.063378313153	592.064797925797	399.011656319276	935.252219911152	512.085783949567	391.418606655486	891.960348190366	439.072856490205	381.159833906067	777.863461975382	349.144333158712	329.134653244619	815.241875089037	223.444276176788	381.894597837279	802.427516228489	405.378195587335	619.611947505648	729.556881530619	300.026886784700	676.088509101097	774.226317373890	207.535784221541	611.717042468152	639.515723825431	43.236161575329	571.729388333760	811.262408295196	97.650187447508	612.998429937493	721.370044945959	36.170480613282	648.966173916461	929.497723692380	45.258666731382	642.652911073648	666.005648220201	85.052579167350	417.096298903663	733.586593324755	75.727092163943	332.656024998075	826.611604968770	123.633570883624	354.983367223580	941.561151986749	57.638861117382	315.637858909411	686.527225117852	1104.250356314525	273.926780543690	692.855788248540	843.545820579030	268.514753167639	848.037223150546	1093.980940144487	863.928777328170	1069.173920869771	958.964527943676	852.381016163722	
55	20.318142857143	583.773763078132	1017.107769573380	560.672709123933	776.473443265422	1446.369471446935	395.736492075530	882.346030544791	1362.589621590803	547.757462981494	810.231102896969	1429.938390187466	730.107471127952	783.781387556577	1497.321407366896	550.722999796685	811.671009939596	939.969776725534	666.444184247860	789.296211501941	968.444831539426	394.872741585688	840.764539617894	738.247028557651	634.314158043277	755.325722877435	633.559615711097	692.405062985786	828.623986833539	579.323520766668	609.788726926600	824.456257836583	492.700288866032	613.610216562822	863.635169694371	781.313122193754	417.515670258758	814.662970290951	657.638179354602	338.558572455153	914.467792717296	592.655612686590	399.946174704759	934.296999153074	514.703172184859	392.136342474769	894.839288204306	441.434404668414	380.969163535425	786.978112032145	345.118450287081	327.485284798035	831.565166988242	221.492517063662	380.242043061101	796.666209143160	404.966716834697	619.340071125861	723.760297935023	299.792504255743	676.090321538144	767.924951737886	207.230643273233	611.489645092208	632.970607537775	43.074497102741	571.720870283233	804.559500631375	97.575863423481	612.878846857852	714.777130575309	36.129280634400	648.962625061543	922.898287363044	45.394143883396	642.608496746140	690.731773371861	74.428938232516	413.980003726159	759.608162484973	69.018177027951	330.179440229281	849.543393618227	122.135597494124	353.302610715748	968.467140148386	62.784252654611	315.078514607302	677.775087883209	1106.734019146974	274.704627538911	678.385090373405	845.924100986217	270.212347417446	855.652719732396	1094.943565742557	864.352555716924	1083.627887704963	972.714535378242	850.304972085785	
56	20.331071428571	582.313691167317	1017.433990156082	561.707500093862	774.979135638892	1446.533167012496	396.254010983763	881.707444237524	1362.073313746432	547.299685558003	811.053279322834	1429.246721616853	730.250404773077	783.470895985451	1497.077743372183	551.260910722701	810.534046959796	939.722599521790	666.034945553054	786.914278087174	968.283859373374	394.490698950435	837.643048446703	737.478131680677	633.660487828332	751.760094440791	633.335532383245	692.508095553205	823.836775743254	578.558662825200	609.351271575896	818.915076676911	492.240165810263	613.193215184704	860.647790817360	781.314245698794	417.798111728596	812.360163153522	657.875765056616	338.096993795794	911.440321949193	592.952204200432	400.760213266465	932.838276251812	517.100602365035	392.807457584494	897.203261696245	443.840128395512	380.837189599457	795.981424288946	341.487180460311	325.903510105487	847.527052545578	220.417155136998	378.907770359863	790.987882226915	404.556306640487	619.082314849371	718.041958570353	299.575807914956	676.118955288431	761.658010211150	206.928415966041	611.279023329541	626.436631520653	42.937930685517	571.733462333017	797.873560601573	97.506639454892	612.770197611170	708.193370645606	36.088818936414	648.957983091202	916.307034639869	45.493425070553	642.563130898685	715.405472890454	65.401899404883	411.226655019165	785.580705232907	63.609622196747	328.252045510578	872.184887534894	121.677029470898	352.165734339149	994.709610626746	68.839986273731	315.542436954732	669.392844930817	1109.253686086344	275.486181500866	664.671561421740	848.447170298074	271.794061482181	862.963059866268	1095.839677051668	864.213252816984	1097.032922483972	986.849431965559	847.582588770417	
57	20.344000000000	580.879496862229	1017.747587121197	562.628770635394	773.600083144034	1446.657787887516	396.602130939528	881.099682750140	1361.537011314564	546.727682608701	811.832875074780	1428.571167267545	730.234166696765	783.201168704766	1496.820628292290	551.608278425889	809.455152849329	939.506292693259	665.607950308636	784.580395788145	968.048088793067	394.071030672995	834.675665244617	736.717894379097	633.141060083436	748.262246856530	633.118680662038	692.588906188810	819.191457250075	577.806538945262	608.990352991754	813.518867612914	491.778599117964	612.819479342687	857.416420089577	781.067213864888	418.052936490313	809.773629259912	657.980852933733	337.502315357118	908.145479977641	593.031894638895	401.379694238050	930.999593450036	519.297883323941	393.377851287137	899.105364114320	446.284058791731	380.735992258805	804.742103497469	338.343316338681	324.448496088188	862.888166024625	220.238170489155	377.910388655858	785.403502682423	404.161186360795	618.844269373418	712.399344238882	299.390995760423	676.167843081163	755.434262496589	206.641918084813	611.089136994901	619.912673713100	42.832485940364	571.764550505420	791.212859710627	97.444852826509	612.676184599307	701.622932946054	36.051470463067	648.953709225361	909.727975929219	45.551187665476	642.519495681309	739.571845529338	58.126260938304	408.947976120537	811.034721104132	59.548704655683	326.949301851233	894.171049832888	122.225030517780	351.577673771950	1019.882443249709	75.618552032383	316.987128822808	661.437230894849	1111.763460990300	276.265584182124	651.742421701639	851.051732416412	273.245172844784	869.977631292316	1096.681321716584	863.500780193580	1109.335711342651	1001.264582670527	844.239720585574	
